<?xml version="1.0" encoding="utf-8" standalone="no"?>
<!DOCTYPE svg PUBLIC "-//W3C//DTD SVG 1.1//EN"
  "http://www.w3.org/Graphics/SVG/1.1/DTD/svg11.dtd">
<svg xmlns:xlink="http://www.w3.org/1999/xlink" width="244.494531pt" height="136.376406pt" viewBox="0 0 244.494531 136.376406" xmlns="http://www.w3.org/2000/svg" version="1.1">
 <metadata>
  <rdf:RDF xmlns:dc="http://purl.org/dc/elements/1.1/" xmlns:cc="http://creativecommons.org/ns#" xmlns:rdf="http://www.w3.org/1999/02/22-rdf-syntax-ns#">
   <cc:Work>
    <dc:type rdf:resource="http://purl.org/dc/dcmitype/StillImage"/>
    <dc:date>2026-04-29T16:10:06.488063</dc:date>
    <dc:format>image/svg+xml</dc:format>
    <dc:creator>
     <cc:Agent>
      <dc:title>Matplotlib v3.10.7, https://matplotlib.org/</dc:title>
     </cc:Agent>
    </dc:creator>
   </cc:Work>
  </rdf:RDF>
 </metadata>
 <defs>
  <style type="text/css">*{stroke-linejoin: round; stroke-linecap: butt}</style>
 </defs>
 <g id="figure_1">
  <g id="patch_1">
   <path d="M 0 136.376406 
L 244.494531 136.376406 
L 244.494531 0 
L 0 0 
z
" style="fill: #ffffff"/>
  </g>
  <g id="axes_1">
   <g id="patch_2">
    <path d="M 36.374531 102.735625 
L 237.294531 102.735625 
L 237.294531 19.449375 
L 36.374531 19.449375 
z
" style="fill: #ffffff"/>
   </g>
   <g id="matplotlib.axis_1">
    <g id="xtick_1">
     <g id="line2d_1">
      <path d="M 44.281389 102.735625 
L 44.281389 19.449375 
" clip-path="url(#pa9f7ced678)" style="fill: none; stroke-dasharray: 0.8,1.32; stroke-dashoffset: 0; stroke: #b0b0b0; stroke-opacity: 0.5; stroke-width: 0.8"/>
     </g>
     <g id="line2d_2">
      <defs>
       <path id="m873440ba63" d="M 0 0 
L 0 3.5 
" style="stroke: #000000; stroke-width: 0.6"/>
      </defs>
      <g>
       <use xlink:href="#m873440ba63" x="44.281389" y="102.735625" style="stroke: #000000; stroke-width: 0.6"/>
      </g>
     </g>
     <g id="text_1">
      <!-- 0 -->
      <g transform="translate(42.281389 115.290625) scale(0.08 -0.08)">
       <defs>
        <path id="TimesNewRomanPSMT-30" d="M 231 2094 
Q 231 2819 450 3342 
Q 669 3866 1031 4122 
Q 1313 4325 1613 4325 
Q 2100 4325 2488 3828 
Q 2972 3213 2972 2159 
Q 2972 1422 2759 906 
Q 2547 391 2217 158 
Q 1888 -75 1581 -75 
Q 975 -75 572 641 
Q 231 1244 231 2094 
z
M 844 2016 
Q 844 1141 1059 588 
Q 1238 122 1591 122 
Q 1759 122 1940 273 
Q 2122 425 2216 781 
Q 2359 1319 2359 2297 
Q 2359 3022 2209 3506 
Q 2097 3866 1919 4016 
Q 1791 4119 1609 4119 
Q 1397 4119 1231 3928 
Q 1006 3669 925 3112 
Q 844 2556 844 2016 
z
" transform="scale(0.015625)"/>
       </defs>
       <use xlink:href="#TimesNewRomanPSMT-30"/>
      </g>
     </g>
    </g>
    <g id="xtick_2">
     <g id="line2d_3">
      <path d="M 74.928125 102.735625 
L 74.928125 19.449375 
" clip-path="url(#pa9f7ced678)" style="fill: none; stroke-dasharray: 0.8,1.32; stroke-dashoffset: 0; stroke: #b0b0b0; stroke-opacity: 0.5; stroke-width: 0.8"/>
     </g>
     <g id="line2d_4">
      <g>
       <use xlink:href="#m873440ba63" x="74.928125" y="102.735625" style="stroke: #000000; stroke-width: 0.6"/>
      </g>
     </g>
     <g id="text_2">
      <!-- 25 -->
      <g transform="translate(70.928125 115.290625) scale(0.08 -0.08)">
       <defs>
        <path id="TimesNewRomanPSMT-32" d="M 2934 816 
L 2638 0 
L 138 0 
L 138 116 
Q 1241 1122 1691 1759 
Q 2141 2397 2141 2925 
Q 2141 3328 1894 3587 
Q 1647 3847 1303 3847 
Q 991 3847 742 3664 
Q 494 3481 375 3128 
L 259 3128 
Q 338 3706 661 4015 
Q 984 4325 1469 4325 
Q 1984 4325 2329 3994 
Q 2675 3663 2675 3213 
Q 2675 2891 2525 2569 
Q 2294 2063 1775 1497 
Q 997 647 803 472 
L 1909 472 
Q 2247 472 2383 497 
Q 2519 522 2628 598 
Q 2738 675 2819 816 
L 2934 816 
z
" transform="scale(0.015625)"/>
        <path id="TimesNewRomanPSMT-35" d="M 2778 4238 
L 2534 3706 
L 1259 3706 
L 981 3138 
Q 1809 3016 2294 2522 
Q 2709 2097 2709 1522 
Q 2709 1188 2573 903 
Q 2438 619 2231 419 
Q 2025 219 1772 97 
Q 1413 -75 1034 -75 
Q 653 -75 479 54 
Q 306 184 306 341 
Q 306 428 378 495 
Q 450 563 559 563 
Q 641 563 702 538 
Q 763 513 909 409 
Q 1144 247 1384 247 
Q 1750 247 2026 523 
Q 2303 800 2303 1197 
Q 2303 1581 2056 1914 
Q 1809 2247 1375 2428 
Q 1034 2569 447 2591 
L 1259 4238 
L 2778 4238 
z
" transform="scale(0.015625)"/>
       </defs>
       <use xlink:href="#TimesNewRomanPSMT-32"/>
       <use xlink:href="#TimesNewRomanPSMT-35" transform="translate(50 0)"/>
      </g>
     </g>
    </g>
    <g id="xtick_3">
     <g id="line2d_5">
      <path d="M 105.574861 102.735625 
L 105.574861 19.449375 
" clip-path="url(#pa9f7ced678)" style="fill: none; stroke-dasharray: 0.8,1.32; stroke-dashoffset: 0; stroke: #b0b0b0; stroke-opacity: 0.5; stroke-width: 0.8"/>
     </g>
     <g id="line2d_6">
      <g>
       <use xlink:href="#m873440ba63" x="105.574861" y="102.735625" style="stroke: #000000; stroke-width: 0.6"/>
      </g>
     </g>
     <g id="text_3">
      <!-- 50 -->
      <g transform="translate(101.574861 115.290625) scale(0.08 -0.08)">
       <use xlink:href="#TimesNewRomanPSMT-35"/>
       <use xlink:href="#TimesNewRomanPSMT-30" transform="translate(50 0)"/>
      </g>
     </g>
    </g>
    <g id="xtick_4">
     <g id="line2d_7">
      <path d="M 136.221597 102.735625 
L 136.221597 19.449375 
" clip-path="url(#pa9f7ced678)" style="fill: none; stroke-dasharray: 0.8,1.32; stroke-dashoffset: 0; stroke: #b0b0b0; stroke-opacity: 0.5; stroke-width: 0.8"/>
     </g>
     <g id="line2d_8">
      <g>
       <use xlink:href="#m873440ba63" x="136.221597" y="102.735625" style="stroke: #000000; stroke-width: 0.6"/>
      </g>
     </g>
     <g id="text_4">
      <!-- 75 -->
      <g transform="translate(132.221597 115.290625) scale(0.08 -0.08)">
       <defs>
        <path id="TimesNewRomanPSMT-37" d="M 644 4238 
L 2916 4238 
L 2916 4119 
L 1503 -88 
L 1153 -88 
L 2419 3728 
L 1253 3728 
Q 900 3728 750 3644 
Q 488 3500 328 3200 
L 238 3234 
L 644 4238 
z
" transform="scale(0.015625)"/>
       </defs>
       <use xlink:href="#TimesNewRomanPSMT-37"/>
       <use xlink:href="#TimesNewRomanPSMT-35" transform="translate(50 0)"/>
      </g>
     </g>
    </g>
    <g id="xtick_5">
     <g id="line2d_9">
      <path d="M 166.868332 102.735625 
L 166.868332 19.449375 
" clip-path="url(#pa9f7ced678)" style="fill: none; stroke-dasharray: 0.8,1.32; stroke-dashoffset: 0; stroke: #b0b0b0; stroke-opacity: 0.5; stroke-width: 0.8"/>
     </g>
     <g id="line2d_10">
      <g>
       <use xlink:href="#m873440ba63" x="166.868332" y="102.735625" style="stroke: #000000; stroke-width: 0.6"/>
      </g>
     </g>
     <g id="text_5">
      <!-- 100 -->
      <g transform="translate(160.868332 115.290625) scale(0.08 -0.08)">
       <defs>
        <path id="TimesNewRomanPSMT-31" d="M 750 3822 
L 1781 4325 
L 1884 4325 
L 1884 747 
Q 1884 391 1914 303 
Q 1944 216 2037 169 
Q 2131 122 2419 116 
L 2419 0 
L 825 0 
L 825 116 
Q 1125 122 1212 167 
Q 1300 213 1334 289 
Q 1369 366 1369 747 
L 1369 3034 
Q 1369 3497 1338 3628 
Q 1316 3728 1258 3775 
Q 1200 3822 1119 3822 
Q 1003 3822 797 3725 
L 750 3822 
z
" transform="scale(0.015625)"/>
       </defs>
       <use xlink:href="#TimesNewRomanPSMT-31"/>
       <use xlink:href="#TimesNewRomanPSMT-30" transform="translate(50 0)"/>
       <use xlink:href="#TimesNewRomanPSMT-30" transform="translate(100 0)"/>
      </g>
     </g>
    </g>
    <g id="xtick_6">
     <g id="line2d_11">
      <path d="M 197.515068 102.735625 
L 197.515068 19.449375 
" clip-path="url(#pa9f7ced678)" style="fill: none; stroke-dasharray: 0.8,1.32; stroke-dashoffset: 0; stroke: #b0b0b0; stroke-opacity: 0.5; stroke-width: 0.8"/>
     </g>
     <g id="line2d_12">
      <g>
       <use xlink:href="#m873440ba63" x="197.515068" y="102.735625" style="stroke: #000000; stroke-width: 0.6"/>
      </g>
     </g>
     <g id="text_6">
      <!-- 125 -->
      <g transform="translate(191.515068 115.290625) scale(0.08 -0.08)">
       <use xlink:href="#TimesNewRomanPSMT-31"/>
       <use xlink:href="#TimesNewRomanPSMT-32" transform="translate(50 0)"/>
       <use xlink:href="#TimesNewRomanPSMT-35" transform="translate(100 0)"/>
      </g>
     </g>
    </g>
    <g id="xtick_7">
     <g id="line2d_13">
      <path d="M 228.161804 102.735625 
L 228.161804 19.449375 
" clip-path="url(#pa9f7ced678)" style="fill: none; stroke-dasharray: 0.8,1.32; stroke-dashoffset: 0; stroke: #b0b0b0; stroke-opacity: 0.5; stroke-width: 0.8"/>
     </g>
     <g id="line2d_14">
      <g>
       <use xlink:href="#m873440ba63" x="228.161804" y="102.735625" style="stroke: #000000; stroke-width: 0.6"/>
      </g>
     </g>
     <g id="text_7">
      <!-- 150 -->
      <g transform="translate(222.161804 115.290625) scale(0.08 -0.08)">
       <use xlink:href="#TimesNewRomanPSMT-31"/>
       <use xlink:href="#TimesNewRomanPSMT-35" transform="translate(50 0)"/>
       <use xlink:href="#TimesNewRomanPSMT-30" transform="translate(100 0)"/>
      </g>
     </g>
    </g>
    <g id="text_8">
     <!-- Global round -->
     <g transform="translate(112.963437 127.25125) scale(0.09 -0.09)">
      <defs>
       <path id="TimesNewRomanPSMT-47" d="M 3928 4334 
L 4038 2997 
L 3928 2997 
Q 3763 3497 3500 3750 
Q 3122 4116 2528 4116 
Q 1719 4116 1297 3475 
Q 944 2934 944 2188 
Q 944 1581 1178 1081 
Q 1413 581 1792 348 
Q 2172 116 2572 116 
Q 2806 116 3025 175 
Q 3244 234 3447 350 
L 3447 1575 
Q 3447 1894 3398 1992 
Q 3350 2091 3248 2142 
Q 3147 2194 2891 2194 
L 2891 2313 
L 4531 2313 
L 4531 2194 
L 4453 2194 
Q 4209 2194 4119 2031 
Q 4056 1916 4056 1575 
L 4056 278 
Q 3697 84 3347 -6 
Q 2997 -97 2569 -97 
Q 1341 -97 703 691 
Q 225 1281 225 2053 
Q 225 2613 494 3125 
Q 813 3734 1369 4063 
Q 1834 4334 2469 4334 
Q 2700 4334 2889 4296 
Q 3078 4259 3425 4131 
Q 3600 4066 3659 4066 
Q 3719 4066 3761 4120 
Q 3803 4175 3813 4334 
L 3928 4334 
z
" transform="scale(0.015625)"/>
       <path id="TimesNewRomanPSMT-6c" d="M 1184 4444 
L 1184 647 
Q 1184 378 1223 290 
Q 1263 203 1344 158 
Q 1425 113 1647 113 
L 1647 0 
L 244 0 
L 244 113 
Q 441 113 512 153 
Q 584 194 625 287 
Q 666 381 666 647 
L 666 3247 
Q 666 3731 644 3842 
Q 622 3953 573 3993 
Q 525 4034 450 4034 
Q 369 4034 244 3984 
L 191 4094 
L 1044 4444 
L 1184 4444 
z
" transform="scale(0.015625)"/>
       <path id="TimesNewRomanPSMT-6f" d="M 1600 2947 
Q 2250 2947 2644 2453 
Q 2978 2031 2978 1484 
Q 2978 1100 2793 706 
Q 2609 313 2286 112 
Q 1963 -88 1566 -88 
Q 919 -88 538 428 
Q 216 863 216 1403 
Q 216 1797 411 2186 
Q 606 2575 925 2761 
Q 1244 2947 1600 2947 
z
M 1503 2744 
Q 1338 2744 1170 2645 
Q 1003 2547 900 2300 
Q 797 2053 797 1666 
Q 797 1041 1045 587 
Q 1294 134 1700 134 
Q 2003 134 2200 384 
Q 2397 634 2397 1244 
Q 2397 2006 2069 2444 
Q 1847 2744 1503 2744 
z
" transform="scale(0.015625)"/>
       <path id="TimesNewRomanPSMT-62" d="M 984 2369 
Q 1400 2947 1881 2947 
Q 2322 2947 2650 2570 
Q 2978 2194 2978 1541 
Q 2978 778 2472 313 
Q 2038 -88 1503 -88 
Q 1253 -88 995 3 
Q 738 94 469 275 
L 469 3241 
Q 469 3728 445 3840 
Q 422 3953 372 3993 
Q 322 4034 247 4034 
Q 159 4034 28 3984 
L -16 4094 
L 844 4444 
L 984 4444 
L 984 2369 
z
M 984 2169 
L 984 456 
Q 1144 300 1314 220 
Q 1484 141 1663 141 
Q 1947 141 2192 453 
Q 2438 766 2438 1363 
Q 2438 1913 2192 2208 
Q 1947 2503 1634 2503 
Q 1469 2503 1303 2419 
Q 1178 2356 984 2169 
z
" transform="scale(0.015625)"/>
       <path id="TimesNewRomanPSMT-61" d="M 1822 413 
Q 1381 72 1269 19 
Q 1100 -59 909 -59 
Q 613 -59 420 144 
Q 228 347 228 678 
Q 228 888 322 1041 
Q 450 1253 767 1440 
Q 1084 1628 1822 1897 
L 1822 2009 
Q 1822 2438 1686 2597 
Q 1550 2756 1291 2756 
Q 1094 2756 978 2650 
Q 859 2544 859 2406 
L 866 2225 
Q 866 2081 792 2003 
Q 719 1925 600 1925 
Q 484 1925 411 2006 
Q 338 2088 338 2228 
Q 338 2497 613 2722 
Q 888 2947 1384 2947 
Q 1766 2947 2009 2819 
Q 2194 2722 2281 2516 
Q 2338 2381 2338 1966 
L 2338 994 
Q 2338 584 2353 492 
Q 2369 400 2405 369 
Q 2441 338 2488 338 
Q 2538 338 2575 359 
Q 2641 400 2828 588 
L 2828 413 
Q 2478 -56 2159 -56 
Q 2006 -56 1915 50 
Q 1825 156 1822 413 
z
M 1822 616 
L 1822 1706 
Q 1350 1519 1213 1441 
Q 966 1303 859 1153 
Q 753 1003 753 825 
Q 753 600 887 451 
Q 1022 303 1197 303 
Q 1434 303 1822 616 
z
" transform="scale(0.015625)"/>
       <path id="TimesNewRomanPSMT-20" transform="scale(0.015625)"/>
       <path id="TimesNewRomanPSMT-72" d="M 1038 2947 
L 1038 2303 
Q 1397 2947 1775 2947 
Q 1947 2947 2059 2842 
Q 2172 2738 2172 2600 
Q 2172 2478 2090 2393 
Q 2009 2309 1897 2309 
Q 1788 2309 1652 2417 
Q 1516 2525 1450 2525 
Q 1394 2525 1328 2463 
Q 1188 2334 1038 2041 
L 1038 669 
Q 1038 431 1097 309 
Q 1138 225 1241 169 
Q 1344 113 1538 113 
L 1538 0 
L 72 0 
L 72 113 
Q 291 113 397 181 
Q 475 231 506 341 
Q 522 394 522 644 
L 522 1753 
Q 522 2253 501 2348 
Q 481 2444 426 2487 
Q 372 2531 291 2531 
Q 194 2531 72 2484 
L 41 2597 
L 906 2947 
L 1038 2947 
z
" transform="scale(0.015625)"/>
       <path id="TimesNewRomanPSMT-75" d="M 2709 2863 
L 2709 1128 
Q 2709 631 2732 520 
Q 2756 409 2807 365 
Q 2859 322 2928 322 
Q 3025 322 3147 375 
L 3191 266 
L 2334 -88 
L 2194 -88 
L 2194 519 
Q 1825 119 1631 15 
Q 1438 -88 1222 -88 
Q 981 -88 804 51 
Q 628 191 559 409 
Q 491 628 491 1028 
L 491 2306 
Q 491 2509 447 2587 
Q 403 2666 317 2708 
Q 231 2750 6 2747 
L 6 2863 
L 1009 2863 
L 1009 947 
Q 1009 547 1148 422 
Q 1288 297 1484 297 
Q 1619 297 1789 381 
Q 1959 466 2194 703 
L 2194 2325 
Q 2194 2569 2105 2655 
Q 2016 2741 1734 2747 
L 1734 2863 
L 2709 2863 
z
" transform="scale(0.015625)"/>
       <path id="TimesNewRomanPSMT-6e" d="M 1034 2341 
Q 1538 2947 1994 2947 
Q 2228 2947 2397 2830 
Q 2566 2713 2666 2444 
Q 2734 2256 2734 1869 
L 2734 647 
Q 2734 375 2778 278 
Q 2813 200 2889 156 
Q 2966 113 3172 113 
L 3172 0 
L 1756 0 
L 1756 113 
L 1816 113 
Q 2016 113 2095 173 
Q 2175 234 2206 353 
Q 2219 400 2219 647 
L 2219 1819 
Q 2219 2209 2117 2386 
Q 2016 2563 1775 2563 
Q 1403 2563 1034 2156 
L 1034 647 
Q 1034 356 1069 288 
Q 1113 197 1189 155 
Q 1266 113 1500 113 
L 1500 0 
L 84 0 
L 84 113 
L 147 113 
Q 366 113 442 223 
Q 519 334 519 647 
L 519 1709 
Q 519 2225 495 2337 
Q 472 2450 423 2490 
Q 375 2531 294 2531 
Q 206 2531 84 2484 
L 38 2597 
L 900 2947 
L 1034 2947 
L 1034 2341 
z
" transform="scale(0.015625)"/>
       <path id="TimesNewRomanPSMT-64" d="M 2222 322 
Q 2013 103 1813 7 
Q 1613 -88 1381 -88 
Q 913 -88 563 304 
Q 213 697 213 1313 
Q 213 1928 600 2439 
Q 988 2950 1597 2950 
Q 1975 2950 2222 2709 
L 2222 3238 
Q 2222 3728 2198 3840 
Q 2175 3953 2125 3993 
Q 2075 4034 2000 4034 
Q 1919 4034 1784 3984 
L 1744 4094 
L 2597 4444 
L 2738 4444 
L 2738 1134 
Q 2738 631 2761 520 
Q 2784 409 2836 365 
Q 2888 322 2956 322 
Q 3041 322 3181 375 
L 3216 266 
L 2366 -88 
L 2222 -88 
L 2222 322 
z
M 2222 541 
L 2222 2016 
Q 2203 2228 2109 2403 
Q 2016 2578 1861 2667 
Q 1706 2756 1559 2756 
Q 1284 2756 1069 2509 
Q 784 2184 784 1559 
Q 784 928 1059 592 
Q 1334 256 1672 256 
Q 1956 256 2222 541 
z
" transform="scale(0.015625)"/>
      </defs>
      <use xlink:href="#TimesNewRomanPSMT-47"/>
      <use xlink:href="#TimesNewRomanPSMT-6c" transform="translate(72.216797 0)"/>
      <use xlink:href="#TimesNewRomanPSMT-6f" transform="translate(100 0)"/>
      <use xlink:href="#TimesNewRomanPSMT-62" transform="translate(150 0)"/>
      <use xlink:href="#TimesNewRomanPSMT-61" transform="translate(200 0)"/>
      <use xlink:href="#TimesNewRomanPSMT-6c" transform="translate(244.384766 0)"/>
      <use xlink:href="#TimesNewRomanPSMT-20" transform="translate(272.167969 0)"/>
      <use xlink:href="#TimesNewRomanPSMT-72" transform="translate(297.167969 0)"/>
      <use xlink:href="#TimesNewRomanPSMT-6f" transform="translate(330.46875 0)"/>
      <use xlink:href="#TimesNewRomanPSMT-75" transform="translate(380.46875 0)"/>
      <use xlink:href="#TimesNewRomanPSMT-6e" transform="translate(430.46875 0)"/>
      <use xlink:href="#TimesNewRomanPSMT-64" transform="translate(480.46875 0)"/>
     </g>
    </g>
   </g>
   <g id="matplotlib.axis_2">
    <g id="ytick_1">
     <g id="line2d_15">
      <path d="M 36.374531 94.400489 
L 237.294531 94.400489 
" clip-path="url(#pa9f7ced678)" style="fill: none; stroke-dasharray: 0.8,1.32; stroke-dashoffset: 0; stroke: #b0b0b0; stroke-opacity: 0.5; stroke-width: 0.8"/>
     </g>
     <g id="line2d_16">
      <defs>
       <path id="mfc1d37bbeb" d="M 0 0 
L -3.5 0 
" style="stroke: #000000; stroke-width: 0.6"/>
      </defs>
      <g>
       <use xlink:href="#mfc1d37bbeb" x="36.374531" y="94.400489" style="stroke: #000000; stroke-width: 0.6"/>
      </g>
     </g>
     <g id="text_9">
      <!-- 0.2 -->
      <g transform="translate(19.374531 97.177989) scale(0.08 -0.08)">
       <defs>
        <path id="TimesNewRomanPSMT-2e" d="M 800 606 
Q 947 606 1047 504 
Q 1147 403 1147 259 
Q 1147 116 1045 14 
Q 944 -88 800 -88 
Q 656 -88 554 14 
Q 453 116 453 259 
Q 453 406 554 506 
Q 656 606 800 606 
z
" transform="scale(0.015625)"/>
       </defs>
       <use xlink:href="#TimesNewRomanPSMT-30"/>
       <use xlink:href="#TimesNewRomanPSMT-2e" transform="translate(50 0)"/>
       <use xlink:href="#TimesNewRomanPSMT-32" transform="translate(75 0)"/>
      </g>
     </g>
    </g>
    <g id="ytick_2">
     <g id="line2d_17">
      <path d="M 36.374531 77.414197 
L 237.294531 77.414197 
" clip-path="url(#pa9f7ced678)" style="fill: none; stroke-dasharray: 0.8,1.32; stroke-dashoffset: 0; stroke: #b0b0b0; stroke-opacity: 0.5; stroke-width: 0.8"/>
     </g>
     <g id="line2d_18">
      <g>
       <use xlink:href="#mfc1d37bbeb" x="36.374531" y="77.414197" style="stroke: #000000; stroke-width: 0.6"/>
      </g>
     </g>
     <g id="text_10">
      <!-- 0.4 -->
      <g transform="translate(19.374531 80.191697) scale(0.08 -0.08)">
       <defs>
        <path id="TimesNewRomanPSMT-34" d="M 2978 1563 
L 2978 1119 
L 2409 1119 
L 2409 0 
L 1894 0 
L 1894 1119 
L 100 1119 
L 100 1519 
L 2066 4325 
L 2409 4325 
L 2409 1563 
L 2978 1563 
z
M 1894 1563 
L 1894 3666 
L 406 1563 
L 1894 1563 
z
" transform="scale(0.015625)"/>
       </defs>
       <use xlink:href="#TimesNewRomanPSMT-30"/>
       <use xlink:href="#TimesNewRomanPSMT-2e" transform="translate(50 0)"/>
       <use xlink:href="#TimesNewRomanPSMT-34" transform="translate(75 0)"/>
      </g>
     </g>
    </g>
    <g id="ytick_3">
     <g id="line2d_19">
      <path d="M 36.374531 60.427905 
L 237.294531 60.427905 
" clip-path="url(#pa9f7ced678)" style="fill: none; stroke-dasharray: 0.8,1.32; stroke-dashoffset: 0; stroke: #b0b0b0; stroke-opacity: 0.5; stroke-width: 0.8"/>
     </g>
     <g id="line2d_20">
      <g>
       <use xlink:href="#mfc1d37bbeb" x="36.374531" y="60.427905" style="stroke: #000000; stroke-width: 0.6"/>
      </g>
     </g>
     <g id="text_11">
      <!-- 0.6 -->
      <g transform="translate(19.374531 63.205405) scale(0.08 -0.08)">
       <defs>
        <path id="TimesNewRomanPSMT-36" d="M 2869 4325 
L 2869 4209 
Q 2456 4169 2195 4045 
Q 1934 3922 1679 3669 
Q 1425 3416 1258 3105 
Q 1091 2794 978 2366 
Q 1428 2675 1881 2675 
Q 2316 2675 2634 2325 
Q 2953 1975 2953 1425 
Q 2953 894 2631 456 
Q 2244 -75 1606 -75 
Q 1172 -75 869 213 
Q 275 772 275 1663 
Q 275 2231 503 2743 
Q 731 3256 1154 3653 
Q 1578 4050 1965 4187 
Q 2353 4325 2688 4325 
L 2869 4325 
z
M 925 2138 
Q 869 1716 869 1456 
Q 869 1156 980 804 
Q 1091 453 1309 247 
Q 1469 100 1697 100 
Q 1969 100 2183 356 
Q 2397 613 2397 1088 
Q 2397 1622 2184 2012 
Q 1972 2403 1581 2403 
Q 1463 2403 1327 2353 
Q 1191 2303 925 2138 
z
" transform="scale(0.015625)"/>
       </defs>
       <use xlink:href="#TimesNewRomanPSMT-30"/>
       <use xlink:href="#TimesNewRomanPSMT-2e" transform="translate(50 0)"/>
       <use xlink:href="#TimesNewRomanPSMT-36" transform="translate(75 0)"/>
      </g>
     </g>
    </g>
    <g id="ytick_4">
     <g id="line2d_21">
      <path d="M 36.374531 43.441613 
L 237.294531 43.441613 
" clip-path="url(#pa9f7ced678)" style="fill: none; stroke-dasharray: 0.8,1.32; stroke-dashoffset: 0; stroke: #b0b0b0; stroke-opacity: 0.5; stroke-width: 0.8"/>
     </g>
     <g id="line2d_22">
      <g>
       <use xlink:href="#mfc1d37bbeb" x="36.374531" y="43.441613" style="stroke: #000000; stroke-width: 0.6"/>
      </g>
     </g>
     <g id="text_12">
      <!-- 0.8 -->
      <g transform="translate(19.374531 46.219113) scale(0.08 -0.08)">
       <defs>
        <path id="TimesNewRomanPSMT-38" d="M 1228 2134 
Q 725 2547 579 2797 
Q 434 3047 434 3316 
Q 434 3728 753 4026 
Q 1072 4325 1600 4325 
Q 2113 4325 2425 4047 
Q 2738 3769 2738 3413 
Q 2738 3175 2569 2928 
Q 2400 2681 1866 2347 
Q 2416 1922 2594 1678 
Q 2831 1359 2831 1006 
Q 2831 559 2490 242 
Q 2150 -75 1597 -75 
Q 994 -75 656 303 
Q 388 606 388 966 
Q 388 1247 577 1523 
Q 766 1800 1228 2134 
z
M 1719 2469 
Q 2094 2806 2194 3001 
Q 2294 3197 2294 3444 
Q 2294 3772 2109 3958 
Q 1925 4144 1606 4144 
Q 1288 4144 1088 3959 
Q 888 3775 888 3528 
Q 888 3366 970 3203 
Q 1053 3041 1206 2894 
L 1719 2469 
z
M 1375 2016 
Q 1116 1797 991 1539 
Q 866 1281 866 981 
Q 866 578 1086 336 
Q 1306 94 1647 94 
Q 1984 94 2187 284 
Q 2391 475 2391 747 
Q 2391 972 2272 1150 
Q 2050 1481 1375 2016 
z
" transform="scale(0.015625)"/>
       </defs>
       <use xlink:href="#TimesNewRomanPSMT-30"/>
       <use xlink:href="#TimesNewRomanPSMT-2e" transform="translate(50 0)"/>
       <use xlink:href="#TimesNewRomanPSMT-38" transform="translate(75 0)"/>
      </g>
     </g>
    </g>
    <g id="ytick_5">
     <g id="line2d_23">
      <path d="M 36.374531 26.455321 
L 237.294531 26.455321 
" clip-path="url(#pa9f7ced678)" style="fill: none; stroke-dasharray: 0.8,1.32; stroke-dashoffset: 0; stroke: #b0b0b0; stroke-opacity: 0.5; stroke-width: 0.8"/>
     </g>
     <g id="line2d_24">
      <g>
       <use xlink:href="#mfc1d37bbeb" x="36.374531" y="26.455321" style="stroke: #000000; stroke-width: 0.6"/>
      </g>
     </g>
     <g id="text_13">
      <!-- 1.0 -->
      <g transform="translate(19.374531 29.232821) scale(0.08 -0.08)">
       <use xlink:href="#TimesNewRomanPSMT-31"/>
       <use xlink:href="#TimesNewRomanPSMT-2e" transform="translate(50 0)"/>
       <use xlink:href="#TimesNewRomanPSMT-30" transform="translate(75 0)"/>
      </g>
     </g>
    </g>
    <g id="text_14">
     <!-- Test MSE -->
     <g transform="translate(13.449375 78.902656) rotate(-90) scale(0.09 -0.09)">
      <defs>
       <path id="TimesNewRomanPSMT-54" d="M 3703 4238 
L 3750 3244 
L 3631 3244 
Q 3597 3506 3538 3619 
Q 3441 3800 3280 3886 
Q 3119 3972 2856 3972 
L 2259 3972 
L 2259 734 
Q 2259 344 2344 247 
Q 2463 116 2709 116 
L 2856 116 
L 2856 0 
L 1059 0 
L 1059 116 
L 1209 116 
Q 1478 116 1591 278 
Q 1659 378 1659 734 
L 1659 3972 
L 1150 3972 
Q 853 3972 728 3928 
Q 566 3869 450 3700 
Q 334 3531 313 3244 
L 194 3244 
L 244 4238 
L 3703 4238 
z
" transform="scale(0.015625)"/>
       <path id="TimesNewRomanPSMT-65" d="M 681 1784 
Q 678 1147 991 784 
Q 1303 422 1725 422 
Q 2006 422 2214 576 
Q 2422 731 2563 1106 
L 2659 1044 
Q 2594 616 2278 264 
Q 1963 -88 1488 -88 
Q 972 -88 605 314 
Q 238 716 238 1394 
Q 238 2128 614 2539 
Q 991 2950 1559 2950 
Q 2041 2950 2350 2633 
Q 2659 2316 2659 1784 
L 681 1784 
z
M 681 1966 
L 2006 1966 
Q 1991 2241 1941 2353 
Q 1863 2528 1708 2628 
Q 1553 2728 1384 2728 
Q 1125 2728 920 2526 
Q 716 2325 681 1966 
z
" transform="scale(0.015625)"/>
       <path id="TimesNewRomanPSMT-73" d="M 2050 2947 
L 2050 1972 
L 1947 1972 
Q 1828 2431 1642 2597 
Q 1456 2763 1169 2763 
Q 950 2763 815 2647 
Q 681 2531 681 2391 
Q 681 2216 781 2091 
Q 878 1963 1175 1819 
L 1631 1597 
Q 2266 1288 2266 781 
Q 2266 391 1970 151 
Q 1675 -88 1309 -88 
Q 1047 -88 709 6 
Q 606 38 541 38 
Q 469 38 428 -44 
L 325 -44 
L 325 978 
L 428 978 
Q 516 541 762 319 
Q 1009 97 1316 97 
Q 1531 97 1667 223 
Q 1803 350 1803 528 
Q 1803 744 1651 891 
Q 1500 1038 1047 1263 
Q 594 1488 453 1669 
Q 313 1847 313 2119 
Q 313 2472 555 2709 
Q 797 2947 1181 2947 
Q 1350 2947 1591 2875 
Q 1750 2828 1803 2828 
Q 1853 2828 1881 2850 
Q 1909 2872 1947 2947 
L 2050 2947 
z
" transform="scale(0.015625)"/>
       <path id="TimesNewRomanPSMT-74" d="M 1031 3803 
L 1031 2863 
L 1700 2863 
L 1700 2644 
L 1031 2644 
L 1031 788 
Q 1031 509 1111 412 
Q 1191 316 1316 316 
Q 1419 316 1516 380 
Q 1613 444 1666 569 
L 1788 569 
Q 1678 263 1478 108 
Q 1278 -47 1066 -47 
Q 922 -47 784 33 
Q 647 113 581 261 
Q 516 409 516 719 
L 516 2644 
L 63 2644 
L 63 2747 
Q 234 2816 414 2980 
Q 594 3144 734 3369 
Q 806 3488 934 3803 
L 1031 3803 
z
" transform="scale(0.015625)"/>
       <path id="TimesNewRomanPSMT-4d" d="M 2619 0 
L 981 3566 
L 981 734 
Q 981 344 1066 247 
Q 1181 116 1431 116 
L 1581 116 
L 1581 0 
L 106 0 
L 106 116 
L 256 116 
Q 525 116 638 278 
Q 706 378 706 734 
L 706 3503 
Q 706 3784 644 3909 
Q 600 4000 483 4061 
Q 366 4122 106 4122 
L 106 4238 
L 1306 4238 
L 2844 922 
L 4356 4238 
L 5556 4238 
L 5556 4122 
L 5409 4122 
Q 5138 4122 5025 3959 
Q 4956 3859 4956 3503 
L 4956 734 
Q 4956 344 5044 247 
Q 5159 116 5409 116 
L 5556 116 
L 5556 0 
L 3756 0 
L 3756 116 
L 3906 116 
Q 4178 116 4288 278 
Q 4356 378 4356 734 
L 4356 3566 
L 2722 0 
L 2619 0 
z
" transform="scale(0.015625)"/>
       <path id="TimesNewRomanPSMT-53" d="M 2934 4334 
L 2934 2869 
L 2819 2869 
Q 2763 3291 2617 3541 
Q 2472 3791 2203 3937 
Q 1934 4084 1647 4084 
Q 1322 4084 1109 3886 
Q 897 3688 897 3434 
Q 897 3241 1031 3081 
Q 1225 2847 1953 2456 
Q 2547 2138 2764 1967 
Q 2981 1797 3098 1565 
Q 3216 1334 3216 1081 
Q 3216 600 2842 251 
Q 2469 -97 1881 -97 
Q 1697 -97 1534 -69 
Q 1438 -53 1133 45 
Q 828 144 747 144 
Q 669 144 623 97 
Q 578 50 556 -97 
L 441 -97 
L 441 1356 
L 556 1356 
Q 638 900 775 673 
Q 913 447 1195 297 
Q 1478 147 1816 147 
Q 2206 147 2432 353 
Q 2659 559 2659 841 
Q 2659 997 2573 1156 
Q 2488 1316 2306 1453 
Q 2184 1547 1640 1851 
Q 1097 2156 867 2337 
Q 638 2519 519 2737 
Q 400 2956 400 3219 
Q 400 3675 750 4004 
Q 1100 4334 1641 4334 
Q 1978 4334 2356 4169 
Q 2531 4091 2603 4091 
Q 2684 4091 2736 4139 
Q 2788 4188 2819 4334 
L 2934 4334 
z
" transform="scale(0.015625)"/>
       <path id="TimesNewRomanPSMT-45" d="M 1338 4006 
L 1338 2331 
L 2269 2331 
Q 2631 2331 2753 2441 
Q 2916 2584 2934 2947 
L 3050 2947 
L 3050 1472 
L 2934 1472 
Q 2891 1781 2847 1869 
Q 2791 1978 2662 2040 
Q 2534 2103 2269 2103 
L 1338 2103 
L 1338 706 
Q 1338 425 1363 364 
Q 1388 303 1450 267 
Q 1513 231 1688 231 
L 2406 231 
Q 2766 231 2928 281 
Q 3091 331 3241 478 
Q 3434 672 3638 1063 
L 3763 1063 
L 3397 0 
L 131 0 
L 131 116 
L 281 116 
Q 431 116 566 188 
Q 666 238 702 338 
Q 738 438 738 747 
L 738 3500 
Q 738 3903 656 3997 
Q 544 4122 281 4122 
L 131 4122 
L 131 4238 
L 3397 4238 
L 3444 3309 
L 3322 3309 
Q 3256 3644 3176 3769 
Q 3097 3894 2941 3959 
Q 2816 4006 2500 4006 
L 1338 4006 
z
" transform="scale(0.015625)"/>
      </defs>
      <use xlink:href="#TimesNewRomanPSMT-54"/>
      <use xlink:href="#TimesNewRomanPSMT-65" transform="translate(54.083984 0)"/>
      <use xlink:href="#TimesNewRomanPSMT-73" transform="translate(98.46875 0)"/>
      <use xlink:href="#TimesNewRomanPSMT-74" transform="translate(137.384766 0)"/>
      <use xlink:href="#TimesNewRomanPSMT-20" transform="translate(165.167969 0)"/>
      <use xlink:href="#TimesNewRomanPSMT-4d" transform="translate(190.167969 0)"/>
      <use xlink:href="#TimesNewRomanPSMT-53" transform="translate(279.083984 0)"/>
      <use xlink:href="#TimesNewRomanPSMT-45" transform="translate(334.699219 0)"/>
     </g>
    </g>
   </g>
   <g id="line2d_25">
    <path d="M 45.507259 23.235114 
L 46.733128 25.729055 
L 47.958997 27.592051 
L 55.314214 36.471757 
L 57.765953 39.075203 
L 60.217692 41.346678 
L 62.669431 43.231393 
L 65.121169 44.855711 
L 68.798778 46.96106 
L 72.476386 48.787697 
L 77.379864 50.97728 
L 83.509211 53.638884 
L 92.090297 57.678985 
L 101.897252 62.561368 
L 114.155947 68.183195 
L 116.607686 69.21362 
L 125.188772 72.86893 
L 143.576813 79.379132 
L 146.028552 80.229277 
L 154.609638 83.056823 
L 157.061377 83.86221 
L 165.642463 86.421303 
L 177.901157 89.464352 
L 192.61159 92.307482 
L 198.740938 93.283786 
L 215.90311 95.586463 
L 224.484196 96.538894 
L 228.161804 97.015093 
L 228.161804 97.015093 
" clip-path="url(#pa9f7ced678)" style="fill: none; stroke: #1f77b4; stroke-width: 1.5; stroke-linecap: square"/>
   </g>
   <g id="line2d_26">
    <path d="M 45.507259 23.235114 
L 46.733128 25.729055 
L 47.958997 27.592051 
L 55.314214 36.471757 
L 57.765953 39.075203 
L 60.217692 41.346678 
L 62.669431 43.231393 
L 65.121169 44.855711 
L 70.024647 47.706081 
L 74.928125 50.349103 
L 81.057472 53.74184 
L 90.864428 59.393122 
L 95.767905 62.380638 
L 106.80073 68.281773 
L 116.607686 72.562508 
L 121.511163 74.561683 
L 123.962902 75.74389 
L 133.769858 79.554836 
L 141.125074 82.080189 
L 143.576813 83.030476 
L 144.802683 83.380203 
L 148.480291 84.668249 
L 158.287246 87.817002 
L 166.868332 90.238733 
L 174.223549 92.07615 
L 180.352896 93.336808 
L 195.063329 95.73272 
L 196.289199 95.806987 
L 199.966807 96.30395 
L 202.418546 96.542678 
L 203.644415 96.789801 
L 207.322024 97.124009 
L 209.773762 97.451359 
L 222.032457 98.490536 
L 224.484196 98.707587 
L 228.161804 98.949886 
L 228.161804 98.949886 
" clip-path="url(#pa9f7ced678)" style="fill: none; stroke-dasharray: 5.55,2.4; stroke-dashoffset: 0; stroke: #ff7f0e; stroke-width: 1.5"/>
   </g>
   <g id="line2d_27">
    <path d="M 45.507259 27.465908 
L 46.733128 30.003156 
L 47.958997 31.879405 
L 54.088345 39.292769 
L 57.765953 43.322552 
L 60.217692 45.755721 
L 62.669431 47.819716 
L 65.121169 49.625184 
L 68.798778 51.834331 
L 73.702255 54.339513 
L 108.0266 69.055516 
L 114.155947 71.340255 
L 126.414641 75.287873 
L 127.640511 75.543232 
L 128.86638 75.945968 
L 130.092249 76.16724 
L 133.769858 77.125459 
L 136.221597 77.75487 
L 138.673335 78.412618 
L 148.480291 81.043296 
L 150.93203 81.615024 
L 152.157899 82.007848 
L 155.835507 82.802171 
L 157.061377 83.199035 
L 158.287246 83.379108 
L 165.642463 85.138119 
L 168.094202 85.58519 
L 180.352896 88.051593 
L 181.578766 88.192243 
L 182.804635 88.491343 
L 185.256374 88.86199 
L 198.740938 90.913399 
L 201.192676 91.111024 
L 202.418546 91.362479 
L 204.870285 91.677182 
L 207.322024 91.986441 
L 210.999632 92.480592 
L 215.90311 92.997386 
L 223.258326 93.841109 
L 225.710065 94.080201 
L 228.161804 94.434833 
L 228.161804 94.434833 
" clip-path="url(#pa9f7ced678)" style="fill: none; stroke: #2ca02c; stroke-width: 1.5; stroke-linecap: square"/>
   </g>
   <g id="line2d_28">
    <path d="M 45.507259 27.465908 
L 46.733128 30.003156 
L 47.958997 31.879405 
L 54.088345 39.292769 
L 57.765953 43.322552 
L 60.217692 45.755721 
L 62.669431 47.819716 
L 65.121169 49.625184 
L 68.798778 51.834331 
L 70.024647 53.220489 
L 71.250517 54.353368 
L 73.702255 56.248402 
L 78.605733 59.296915 
L 79.831603 59.860461 
L 82.283342 61.285232 
L 90.864428 65.7356 
L 92.090297 66.312624 
L 93.316166 67.085184 
L 101.897252 71.082589 
L 103.123122 71.408162 
L 108.0266 73.295971 
L 111.704208 74.451941 
L 117.833555 76.25486 
L 119.059424 76.757147 
L 122.737033 77.819105 
L 127.640511 79.412566 
L 128.86638 79.645218 
L 131.318119 80.381879 
L 132.543988 80.570643 
L 133.769858 81.01103 
L 134.995727 81.180566 
L 138.673335 82.280585 
L 139.899205 82.699869 
L 142.350944 83.292958 
L 143.576813 83.687424 
L 146.028552 84.268398 
L 147.254421 84.644663 
L 149.70616 85.215235 
L 152.157899 85.861965 
L 153.383769 86.29693 
L 154.609638 86.425081 
L 157.061377 87.197234 
L 159.513116 87.706611 
L 160.738985 87.872613 
L 166.868332 89.380136 
L 170.545941 90.141882 
L 171.77181 90.260599 
L 172.99768 90.732159 
L 186.482243 92.821959 
L 192.61159 93.664759 
L 193.83746 93.681345 
L 195.063329 94.014682 
L 197.515068 94.266261 
L 209.773762 95.528191 
L 220.806587 96.46242 
L 222.032457 96.516661 
L 223.258326 96.717187 
L 225.710065 96.843606 
L 228.161804 97.021062 
L 228.161804 97.021062 
" clip-path="url(#pa9f7ced678)" style="fill: none; stroke-dasharray: 5.55,2.4; stroke-dashoffset: 0; stroke: #d62728; stroke-width: 1.5"/>
   </g>
   <g id="line2d_29">
    <path d="M 68.798778 102.735625 
L 68.798778 19.449375 
" clip-path="url(#pa9f7ced678)" style="fill: none; stroke-dasharray: 1.2,1.98; stroke-dashoffset: 0; stroke: #808080; stroke-width: 1.2"/>
   </g>
   <g id="patch_3">
    <path d="M 36.374531 102.735625 
L 36.374531 19.449375 
" style="fill: none; stroke: #000000; stroke-width: 0.7; stroke-linejoin: miter; stroke-linecap: square"/>
   </g>
   <g id="patch_4">
    <path d="M 237.294531 102.735625 
L 237.294531 19.449375 
" style="fill: none; stroke: #000000; stroke-width: 0.7; stroke-linejoin: miter; stroke-linecap: square"/>
   </g>
   <g id="patch_5">
    <path d="M 36.374531 102.735625 
L 237.294531 102.735625 
" style="fill: none; stroke: #000000; stroke-width: 0.7; stroke-linejoin: miter; stroke-linecap: square"/>
   </g>
   <g id="patch_6">
    <path d="M 36.374531 19.449375 
L 237.294531 19.449375 
" style="fill: none; stroke: #000000; stroke-width: 0.7; stroke-linejoin: miter; stroke-linecap: square"/>
   </g>
   <g id="text_15">
    <!-- Learning curves (Join vs NoJoin) -->
    <g transform="translate(76.846016 13.449375) scale(0.09 -0.09)">
     <defs>
      <path id="TimesNewRomanPSMT-4c" d="M 3669 1172 
L 3772 1150 
L 3409 0 
L 128 0 
L 128 116 
L 288 116 
Q 556 116 672 291 
Q 738 391 738 753 
L 738 3488 
Q 738 3884 650 3984 
Q 528 4122 288 4122 
L 128 4122 
L 128 4238 
L 2047 4238 
L 2047 4122 
Q 1709 4125 1573 4059 
Q 1438 3994 1388 3894 
Q 1338 3794 1338 3416 
L 1338 753 
Q 1338 494 1388 397 
Q 1425 331 1503 300 
Q 1581 269 1991 269 
L 2300 269 
Q 2788 269 2984 341 
Q 3181 413 3343 595 
Q 3506 778 3669 1172 
z
" transform="scale(0.015625)"/>
      <path id="TimesNewRomanPSMT-69" d="M 928 4444 
Q 1059 4444 1151 4351 
Q 1244 4259 1244 4128 
Q 1244 3997 1151 3903 
Q 1059 3809 928 3809 
Q 797 3809 703 3903 
Q 609 3997 609 4128 
Q 609 4259 701 4351 
Q 794 4444 928 4444 
z
M 1188 2947 
L 1188 647 
Q 1188 378 1227 289 
Q 1266 200 1342 156 
Q 1419 113 1622 113 
L 1622 0 
L 231 0 
L 231 113 
Q 441 113 512 153 
Q 584 194 626 287 
Q 669 381 669 647 
L 669 1750 
Q 669 2216 641 2353 
Q 619 2453 572 2492 
Q 525 2531 444 2531 
Q 356 2531 231 2484 
L 188 2597 
L 1050 2947 
L 1188 2947 
z
" transform="scale(0.015625)"/>
      <path id="TimesNewRomanPSMT-67" d="M 966 1044 
Q 703 1172 562 1401 
Q 422 1631 422 1909 
Q 422 2334 742 2640 
Q 1063 2947 1563 2947 
Q 1972 2947 2272 2747 
L 2878 2747 
Q 3013 2747 3034 2739 
Q 3056 2731 3066 2713 
Q 3084 2684 3084 2613 
Q 3084 2531 3069 2500 
Q 3059 2484 3036 2475 
Q 3013 2466 2878 2466 
L 2506 2466 
Q 2681 2241 2681 1891 
Q 2681 1491 2375 1206 
Q 2069 922 1553 922 
Q 1341 922 1119 984 
Q 981 866 932 777 
Q 884 688 884 625 
Q 884 572 936 522 
Q 988 472 1138 450 
Q 1225 438 1575 428 
Q 2219 413 2409 384 
Q 2700 344 2873 169 
Q 3047 -6 3047 -263 
Q 3047 -616 2716 -925 
Q 2228 -1381 1444 -1381 
Q 841 -1381 425 -1109 
Q 191 -953 191 -784 
Q 191 -709 225 -634 
Q 278 -519 444 -313 
Q 466 -284 763 25 
Q 600 122 533 198 
Q 466 275 466 372 
Q 466 481 555 628 
Q 644 775 966 1044 
z
M 1509 2797 
Q 1278 2797 1122 2612 
Q 966 2428 966 2047 
Q 966 1553 1178 1281 
Q 1341 1075 1591 1075 
Q 1828 1075 1981 1253 
Q 2134 1431 2134 1813 
Q 2134 2309 1919 2591 
Q 1759 2797 1509 2797 
z
M 934 0 
Q 788 -159 713 -296 
Q 638 -434 638 -550 
Q 638 -700 819 -813 
Q 1131 -1006 1722 -1006 
Q 2284 -1006 2551 -807 
Q 2819 -609 2819 -384 
Q 2819 -222 2659 -153 
Q 2497 -84 2016 -72 
Q 1313 -53 934 0 
z
" transform="scale(0.015625)"/>
      <path id="TimesNewRomanPSMT-63" d="M 2631 1088 
Q 2516 522 2178 217 
Q 1841 -88 1431 -88 
Q 944 -88 581 321 
Q 219 731 219 1428 
Q 219 2103 620 2525 
Q 1022 2947 1584 2947 
Q 2006 2947 2278 2723 
Q 2550 2500 2550 2259 
Q 2550 2141 2473 2067 
Q 2397 1994 2259 1994 
Q 2075 1994 1981 2113 
Q 1928 2178 1911 2362 
Q 1894 2547 1784 2644 
Q 1675 2738 1481 2738 
Q 1169 2738 978 2506 
Q 725 2200 725 1697 
Q 725 1184 976 792 
Q 1228 400 1656 400 
Q 1963 400 2206 609 
Q 2378 753 2541 1131 
L 2631 1088 
z
" transform="scale(0.015625)"/>
      <path id="TimesNewRomanPSMT-76" d="M 53 2863 
L 1400 2863 
L 1400 2747 
L 1313 2747 
Q 1191 2747 1127 2687 
Q 1063 2628 1063 2528 
Q 1063 2419 1128 2269 
L 1794 688 
L 2463 2328 
Q 2534 2503 2534 2594 
Q 2534 2638 2509 2666 
Q 2475 2713 2422 2730 
Q 2369 2747 2206 2747 
L 2206 2863 
L 3141 2863 
L 3141 2747 
Q 2978 2734 2916 2681 
Q 2806 2588 2719 2369 
L 1703 -88 
L 1575 -88 
L 553 2328 
Q 484 2497 421 2570 
Q 359 2644 263 2694 
Q 209 2722 53 2747 
L 53 2863 
z
" transform="scale(0.015625)"/>
      <path id="TimesNewRomanPSMT-28" d="M 1988 -1253 
L 1988 -1369 
Q 1516 -1131 1200 -813 
Q 750 -359 506 256 
Q 263 872 263 1534 
Q 263 2503 741 3301 
Q 1219 4100 1988 4444 
L 1988 4313 
Q 1603 4100 1356 3731 
Q 1109 3363 987 2797 
Q 866 2231 866 1616 
Q 866 947 969 400 
Q 1050 -31 1165 -292 
Q 1281 -553 1476 -793 
Q 1672 -1034 1988 -1253 
z
" transform="scale(0.015625)"/>
      <path id="TimesNewRomanPSMT-4a" d="M 638 4122 
L 638 4238 
L 2453 4238 
L 2453 4122 
L 2300 4122 
Q 2041 4122 1922 3969 
Q 1847 3869 1847 3488 
L 1847 1416 
Q 1847 938 1742 641 
Q 1638 344 1381 123 
Q 1125 -97 763 -97 
Q 469 -97 300 48 
Q 131 194 131 381 
Q 131 534 209 613 
Q 313 709 450 709 
Q 550 709 629 643 
Q 709 578 831 294 
Q 903 125 1016 125 
Q 1100 125 1173 228 
Q 1247 331 1247 594 
L 1247 3488 
Q 1247 3809 1206 3913 
Q 1175 3991 1075 4047 
Q 941 4122 791 4122 
L 638 4122 
z
" transform="scale(0.015625)"/>
      <path id="TimesNewRomanPSMT-4e" d="M -84 4238 
L 1066 4238 
L 3656 1059 
L 3656 3503 
Q 3656 3894 3569 3991 
Q 3453 4122 3203 4122 
L 3056 4122 
L 3056 4238 
L 4531 4238 
L 4531 4122 
L 4381 4122 
Q 4113 4122 4000 3959 
Q 3931 3859 3931 3503 
L 3931 -69 
L 3819 -69 
L 1025 3344 
L 1025 734 
Q 1025 344 1109 247 
Q 1228 116 1475 116 
L 1625 116 
L 1625 0 
L 150 0 
L 150 116 
L 297 116 
Q 569 116 681 278 
Q 750 378 750 734 
L 750 3681 
Q 566 3897 470 3965 
Q 375 4034 191 4094 
Q 100 4122 -84 4122 
L -84 4238 
z
" transform="scale(0.015625)"/>
      <path id="TimesNewRomanPSMT-29" d="M 144 4313 
L 144 4444 
Q 619 4209 934 3891 
Q 1381 3434 1625 2820 
Q 1869 2206 1869 1541 
Q 1869 572 1392 -226 
Q 916 -1025 144 -1369 
L 144 -1253 
Q 528 -1038 776 -670 
Q 1025 -303 1145 264 
Q 1266 831 1266 1447 
Q 1266 2113 1163 2663 
Q 1084 3094 967 3353 
Q 850 3613 656 3853 
Q 463 4094 144 4313 
z
" transform="scale(0.015625)"/>
     </defs>
     <use xlink:href="#TimesNewRomanPSMT-4c"/>
     <use xlink:href="#TimesNewRomanPSMT-65" transform="translate(61.083984 0)"/>
     <use xlink:href="#TimesNewRomanPSMT-61" transform="translate(105.46875 0)"/>
     <use xlink:href="#TimesNewRomanPSMT-72" transform="translate(149.853516 0)"/>
     <use xlink:href="#TimesNewRomanPSMT-6e" transform="translate(183.154297 0)"/>
     <use xlink:href="#TimesNewRomanPSMT-69" transform="translate(233.154297 0)"/>
     <use xlink:href="#TimesNewRomanPSMT-6e" transform="translate(260.9375 0)"/>
     <use xlink:href="#TimesNewRomanPSMT-67" transform="translate(310.9375 0)"/>
     <use xlink:href="#TimesNewRomanPSMT-20" transform="translate(360.9375 0)"/>
     <use xlink:href="#TimesNewRomanPSMT-63" transform="translate(385.9375 0)"/>
     <use xlink:href="#TimesNewRomanPSMT-75" transform="translate(430.322266 0)"/>
     <use xlink:href="#TimesNewRomanPSMT-72" transform="translate(480.322266 0)"/>
     <use xlink:href="#TimesNewRomanPSMT-76" transform="translate(513.623047 0)"/>
     <use xlink:href="#TimesNewRomanPSMT-65" transform="translate(563.623047 0)"/>
     <use xlink:href="#TimesNewRomanPSMT-73" transform="translate(608.007812 0)"/>
     <use xlink:href="#TimesNewRomanPSMT-20" transform="translate(646.923828 0)"/>
     <use xlink:href="#TimesNewRomanPSMT-28" transform="translate(671.923828 0)"/>
     <use xlink:href="#TimesNewRomanPSMT-4a" transform="translate(705.224609 0)"/>
     <use xlink:href="#TimesNewRomanPSMT-6f" transform="translate(744.140625 0)"/>
     <use xlink:href="#TimesNewRomanPSMT-69" transform="translate(794.140625 0)"/>
     <use xlink:href="#TimesNewRomanPSMT-6e" transform="translate(821.923828 0)"/>
     <use xlink:href="#TimesNewRomanPSMT-20" transform="translate(871.923828 0)"/>
     <use xlink:href="#TimesNewRomanPSMT-76" transform="translate(896.923828 0)"/>
     <use xlink:href="#TimesNewRomanPSMT-73" transform="translate(946.923828 0)"/>
     <use xlink:href="#TimesNewRomanPSMT-20" transform="translate(985.839844 0)"/>
     <use xlink:href="#TimesNewRomanPSMT-4e" transform="translate(1010.839844 0)"/>
     <use xlink:href="#TimesNewRomanPSMT-6f" transform="translate(1083.056641 0)"/>
     <use xlink:href="#TimesNewRomanPSMT-4a" transform="translate(1133.056641 0)"/>
     <use xlink:href="#TimesNewRomanPSMT-6f" transform="translate(1171.972656 0)"/>
     <use xlink:href="#TimesNewRomanPSMT-69" transform="translate(1221.972656 0)"/>
     <use xlink:href="#TimesNewRomanPSMT-6e" transform="translate(1249.755859 0)"/>
     <use xlink:href="#TimesNewRomanPSMT-29" transform="translate(1299.755859 0)"/>
    </g>
   </g>
   <g id="legend_1">
    <g id="line2d_30">
     <path d="M 122.751563 28.199375 
L 129.751563 28.199375 
L 136.751563 28.199375 
" style="fill: none; stroke: #1f77b4; stroke-width: 1.5; stroke-linecap: square"/>
    </g>
    <g id="text_16">
     <!-- Old clients (NoJoin) -->
     <g transform="translate(142.351562 30.649375) scale(0.07 -0.07)">
      <defs>
       <path id="TimesNewRomanPSMT-4f" d="M 2341 4334 
Q 3166 4334 3770 3707 
Q 4375 3081 4375 2144 
Q 4375 1178 3765 540 
Q 3156 -97 2291 -97 
Q 1416 -97 820 525 
Q 225 1147 225 2134 
Q 225 3144 913 3781 
Q 1509 4334 2341 4334 
z
M 2281 4106 
Q 1713 4106 1369 3684 
Q 941 3159 941 2147 
Q 941 1109 1384 550 
Q 1725 125 2284 125 
Q 2881 125 3270 590 
Q 3659 1056 3659 2059 
Q 3659 3147 3231 3681 
Q 2888 4106 2281 4106 
z
" transform="scale(0.015625)"/>
      </defs>
      <use xlink:href="#TimesNewRomanPSMT-4f"/>
      <use xlink:href="#TimesNewRomanPSMT-6c" transform="translate(72.216797 0)"/>
      <use xlink:href="#TimesNewRomanPSMT-64" transform="translate(100 0)"/>
      <use xlink:href="#TimesNewRomanPSMT-20" transform="translate(150 0)"/>
      <use xlink:href="#TimesNewRomanPSMT-63" transform="translate(175 0)"/>
      <use xlink:href="#TimesNewRomanPSMT-6c" transform="translate(219.384766 0)"/>
      <use xlink:href="#TimesNewRomanPSMT-69" transform="translate(247.167969 0)"/>
      <use xlink:href="#TimesNewRomanPSMT-65" transform="translate(274.951172 0)"/>
      <use xlink:href="#TimesNewRomanPSMT-6e" transform="translate(319.335938 0)"/>
      <use xlink:href="#TimesNewRomanPSMT-74" transform="translate(369.335938 0)"/>
      <use xlink:href="#TimesNewRomanPSMT-73" transform="translate(397.119141 0)"/>
      <use xlink:href="#TimesNewRomanPSMT-20" transform="translate(436.035156 0)"/>
      <use xlink:href="#TimesNewRomanPSMT-28" transform="translate(461.035156 0)"/>
      <use xlink:href="#TimesNewRomanPSMT-4e" transform="translate(494.335938 0)"/>
      <use xlink:href="#TimesNewRomanPSMT-6f" transform="translate(566.552734 0)"/>
      <use xlink:href="#TimesNewRomanPSMT-4a" transform="translate(616.552734 0)"/>
      <use xlink:href="#TimesNewRomanPSMT-6f" transform="translate(655.46875 0)"/>
      <use xlink:href="#TimesNewRomanPSMT-69" transform="translate(705.46875 0)"/>
      <use xlink:href="#TimesNewRomanPSMT-6e" transform="translate(733.251953 0)"/>
      <use xlink:href="#TimesNewRomanPSMT-29" transform="translate(783.251953 0)"/>
     </g>
    </g>
    <g id="line2d_31">
     <path d="M 122.751563 38.096719 
L 129.751563 38.096719 
L 136.751563 38.096719 
" style="fill: none; stroke-dasharray: 5.55,2.4; stroke-dashoffset: 0; stroke: #ff7f0e; stroke-width: 1.5"/>
    </g>
    <g id="text_17">
     <!-- Old clients (Join) -->
     <g transform="translate(142.351562 40.546719) scale(0.07 -0.07)">
      <use xlink:href="#TimesNewRomanPSMT-4f"/>
      <use xlink:href="#TimesNewRomanPSMT-6c" transform="translate(72.216797 0)"/>
      <use xlink:href="#TimesNewRomanPSMT-64" transform="translate(100 0)"/>
      <use xlink:href="#TimesNewRomanPSMT-20" transform="translate(150 0)"/>
      <use xlink:href="#TimesNewRomanPSMT-63" transform="translate(175 0)"/>
      <use xlink:href="#TimesNewRomanPSMT-6c" transform="translate(219.384766 0)"/>
      <use xlink:href="#TimesNewRomanPSMT-69" transform="translate(247.167969 0)"/>
      <use xlink:href="#TimesNewRomanPSMT-65" transform="translate(274.951172 0)"/>
      <use xlink:href="#TimesNewRomanPSMT-6e" transform="translate(319.335938 0)"/>
      <use xlink:href="#TimesNewRomanPSMT-74" transform="translate(369.335938 0)"/>
      <use xlink:href="#TimesNewRomanPSMT-73" transform="translate(397.119141 0)"/>
      <use xlink:href="#TimesNewRomanPSMT-20" transform="translate(436.035156 0)"/>
      <use xlink:href="#TimesNewRomanPSMT-28" transform="translate(461.035156 0)"/>
      <use xlink:href="#TimesNewRomanPSMT-4a" transform="translate(494.335938 0)"/>
      <use xlink:href="#TimesNewRomanPSMT-6f" transform="translate(533.251953 0)"/>
      <use xlink:href="#TimesNewRomanPSMT-69" transform="translate(583.251953 0)"/>
      <use xlink:href="#TimesNewRomanPSMT-6e" transform="translate(611.035156 0)"/>
      <use xlink:href="#TimesNewRomanPSMT-29" transform="translate(661.035156 0)"/>
     </g>
    </g>
    <g id="line2d_32">
     <path d="M 122.751563 47.994062 
L 129.751563 47.994062 
L 136.751563 47.994062 
" style="fill: none; stroke: #2ca02c; stroke-width: 1.5; stroke-linecap: square"/>
    </g>
    <g id="text_18">
     <!-- New client (NoJoin / zero-shot) -->
     <g transform="translate(142.351562 50.444063) scale(0.07 -0.07)">
      <defs>
       <path id="TimesNewRomanPSMT-77" d="M 41 2863 
L 1241 2863 
L 1241 2747 
Q 1075 2734 1023 2687 
Q 972 2641 972 2553 
Q 972 2456 1025 2319 
L 1638 672 
L 2253 2013 
L 2091 2434 
Q 2016 2622 1894 2694 
Q 1825 2738 1638 2747 
L 1638 2863 
L 3000 2863 
L 3000 2747 
Q 2775 2738 2681 2666 
Q 2619 2616 2619 2506 
Q 2619 2444 2644 2378 
L 3294 734 
L 3897 2319 
Q 3959 2488 3959 2588 
Q 3959 2647 3898 2694 
Q 3838 2741 3659 2747 
L 3659 2863 
L 4563 2863 
L 4563 2747 
Q 4291 2706 4163 2378 
L 3206 -88 
L 3078 -88 
L 2363 1741 
L 1528 -88 
L 1413 -88 
L 494 2319 
Q 403 2547 315 2626 
Q 228 2706 41 2747 
L 41 2863 
z
" transform="scale(0.015625)"/>
       <path id="TimesNewRomanPSMT-2f" d="M 1794 4444 
L 259 -88 
L 9 -88 
L 1544 4444 
L 1794 4444 
z
" transform="scale(0.015625)"/>
       <path id="TimesNewRomanPSMT-7a" d="M 2688 878 
L 2653 0 
L 128 0 
L 128 113 
L 2028 2644 
L 1091 2644 
Q 788 2644 694 2605 
Q 600 2566 541 2456 
Q 456 2300 444 2069 
L 319 2069 
L 338 2863 
L 2738 2863 
L 2738 2747 
L 819 209 
L 1863 209 
Q 2191 209 2308 264 
Q 2425 319 2497 456 
Q 2547 556 2581 878 
L 2688 878 
z
" transform="scale(0.015625)"/>
       <path id="TimesNewRomanPSMT-2d" d="M 259 1672 
L 1875 1672 
L 1875 1200 
L 259 1200 
L 259 1672 
z
" transform="scale(0.015625)"/>
       <path id="TimesNewRomanPSMT-68" d="M 1041 4444 
L 1041 2350 
Q 1388 2731 1591 2839 
Q 1794 2947 1997 2947 
Q 2241 2947 2416 2812 
Q 2591 2678 2675 2391 
Q 2734 2191 2734 1659 
L 2734 647 
Q 2734 375 2778 275 
Q 2809 200 2884 156 
Q 2959 113 3159 113 
L 3159 0 
L 1753 0 
L 1753 113 
L 1819 113 
Q 2019 113 2097 173 
Q 2175 234 2206 353 
Q 2216 403 2216 647 
L 2216 1659 
Q 2216 2128 2167 2275 
Q 2119 2422 2012 2495 
Q 1906 2569 1756 2569 
Q 1603 2569 1437 2487 
Q 1272 2406 1041 2159 
L 1041 647 
Q 1041 353 1073 281 
Q 1106 209 1195 161 
Q 1284 113 1503 113 
L 1503 0 
L 84 0 
L 84 113 
Q 275 113 384 172 
Q 447 203 484 290 
Q 522 378 522 647 
L 522 3238 
Q 522 3728 498 3840 
Q 475 3953 426 3993 
Q 378 4034 297 4034 
Q 231 4034 84 3984 
L 41 4094 
L 897 4444 
L 1041 4444 
z
" transform="scale(0.015625)"/>
      </defs>
      <use xlink:href="#TimesNewRomanPSMT-4e"/>
      <use xlink:href="#TimesNewRomanPSMT-65" transform="translate(72.216797 0)"/>
      <use xlink:href="#TimesNewRomanPSMT-77" transform="translate(116.601562 0)"/>
      <use xlink:href="#TimesNewRomanPSMT-20" transform="translate(188.818359 0)"/>
      <use xlink:href="#TimesNewRomanPSMT-63" transform="translate(213.818359 0)"/>
      <use xlink:href="#TimesNewRomanPSMT-6c" transform="translate(258.203125 0)"/>
      <use xlink:href="#TimesNewRomanPSMT-69" transform="translate(285.986328 0)"/>
      <use xlink:href="#TimesNewRomanPSMT-65" transform="translate(313.769531 0)"/>
      <use xlink:href="#TimesNewRomanPSMT-6e" transform="translate(358.154297 0)"/>
      <use xlink:href="#TimesNewRomanPSMT-74" transform="translate(408.154297 0)"/>
      <use xlink:href="#TimesNewRomanPSMT-20" transform="translate(435.9375 0)"/>
      <use xlink:href="#TimesNewRomanPSMT-28" transform="translate(460.9375 0)"/>
      <use xlink:href="#TimesNewRomanPSMT-4e" transform="translate(494.238281 0)"/>
      <use xlink:href="#TimesNewRomanPSMT-6f" transform="translate(566.455078 0)"/>
      <use xlink:href="#TimesNewRomanPSMT-4a" transform="translate(616.455078 0)"/>
      <use xlink:href="#TimesNewRomanPSMT-6f" transform="translate(655.371094 0)"/>
      <use xlink:href="#TimesNewRomanPSMT-69" transform="translate(705.371094 0)"/>
      <use xlink:href="#TimesNewRomanPSMT-6e" transform="translate(733.154297 0)"/>
      <use xlink:href="#TimesNewRomanPSMT-20" transform="translate(783.154297 0)"/>
      <use xlink:href="#TimesNewRomanPSMT-2f" transform="translate(808.154297 0)"/>
      <use xlink:href="#TimesNewRomanPSMT-20" transform="translate(835.9375 0)"/>
      <use xlink:href="#TimesNewRomanPSMT-7a" transform="translate(860.9375 0)"/>
      <use xlink:href="#TimesNewRomanPSMT-65" transform="translate(905.322266 0)"/>
      <use xlink:href="#TimesNewRomanPSMT-72" transform="translate(949.707031 0)"/>
      <use xlink:href="#TimesNewRomanPSMT-6f" transform="translate(983.007812 0)"/>
      <use xlink:href="#TimesNewRomanPSMT-2d" transform="translate(1033.007812 0)"/>
      <use xlink:href="#TimesNewRomanPSMT-73" transform="translate(1066.308594 0)"/>
      <use xlink:href="#TimesNewRomanPSMT-68" transform="translate(1105.224609 0)"/>
      <use xlink:href="#TimesNewRomanPSMT-6f" transform="translate(1155.224609 0)"/>
      <use xlink:href="#TimesNewRomanPSMT-74" transform="translate(1205.224609 0)"/>
      <use xlink:href="#TimesNewRomanPSMT-29" transform="translate(1233.007812 0)"/>
     </g>
    </g>
    <g id="line2d_33">
     <path d="M 122.751563 57.891406 
L 129.751563 57.891406 
L 136.751563 57.891406 
" style="fill: none; stroke-dasharray: 5.55,2.4; stroke-dashoffset: 0; stroke: #d62728; stroke-width: 1.5"/>
    </g>
    <g id="text_19">
     <!-- New client (Join) -->
     <g transform="translate(142.351562 60.341406) scale(0.07 -0.07)">
      <use xlink:href="#TimesNewRomanPSMT-4e"/>
      <use xlink:href="#TimesNewRomanPSMT-65" transform="translate(72.216797 0)"/>
      <use xlink:href="#TimesNewRomanPSMT-77" transform="translate(116.601562 0)"/>
      <use xlink:href="#TimesNewRomanPSMT-20" transform="translate(188.818359 0)"/>
      <use xlink:href="#TimesNewRomanPSMT-63" transform="translate(213.818359 0)"/>
      <use xlink:href="#TimesNewRomanPSMT-6c" transform="translate(258.203125 0)"/>
      <use xlink:href="#TimesNewRomanPSMT-69" transform="translate(285.986328 0)"/>
      <use xlink:href="#TimesNewRomanPSMT-65" transform="translate(313.769531 0)"/>
      <use xlink:href="#TimesNewRomanPSMT-6e" transform="translate(358.154297 0)"/>
      <use xlink:href="#TimesNewRomanPSMT-74" transform="translate(408.154297 0)"/>
      <use xlink:href="#TimesNewRomanPSMT-20" transform="translate(435.9375 0)"/>
      <use xlink:href="#TimesNewRomanPSMT-28" transform="translate(460.9375 0)"/>
      <use xlink:href="#TimesNewRomanPSMT-4a" transform="translate(494.238281 0)"/>
      <use xlink:href="#TimesNewRomanPSMT-6f" transform="translate(533.154297 0)"/>
      <use xlink:href="#TimesNewRomanPSMT-69" transform="translate(583.154297 0)"/>
      <use xlink:href="#TimesNewRomanPSMT-6e" transform="translate(610.9375 0)"/>
      <use xlink:href="#TimesNewRomanPSMT-29" transform="translate(660.9375 0)"/>
     </g>
    </g>
    <g id="line2d_34">
     <path d="M 122.751563 67.78875 
L 129.751563 67.78875 
L 136.751563 67.78875 
" style="fill: none; stroke-dasharray: 1.2,1.98; stroke-dashoffset: 0; stroke: #808080; stroke-width: 1.2"/>
    </g>
    <g id="text_20">
     <!-- Join round -->
     <g transform="translate(142.351562 70.23875) scale(0.07 -0.07)">
      <use xlink:href="#TimesNewRomanPSMT-4a"/>
      <use xlink:href="#TimesNewRomanPSMT-6f" transform="translate(38.916016 0)"/>
      <use xlink:href="#TimesNewRomanPSMT-69" transform="translate(88.916016 0)"/>
      <use xlink:href="#TimesNewRomanPSMT-6e" transform="translate(116.699219 0)"/>
      <use xlink:href="#TimesNewRomanPSMT-20" transform="translate(166.699219 0)"/>
      <use xlink:href="#TimesNewRomanPSMT-72" transform="translate(191.699219 0)"/>
      <use xlink:href="#TimesNewRomanPSMT-6f" transform="translate(225 0)"/>
      <use xlink:href="#TimesNewRomanPSMT-75" transform="translate(275 0)"/>
      <use xlink:href="#TimesNewRomanPSMT-6e" transform="translate(325 0)"/>
      <use xlink:href="#TimesNewRomanPSMT-64" transform="translate(375 0)"/>
     </g>
    </g>
   </g>
  </g>
 </g>
 <defs>
  <clipPath id="pa9f7ced678">
   <rect x="36.374531" y="19.449375" width="200.92" height="83.28625"/>
  </clipPath>
 </defs>
</svg>
